<svg xmlns="http://www.w3.org/2000/svg" fill="none" viewBox="0 0 359 282">
  <defs/>
  <path fill="url(#paint0_diamond)" d="M28.1 24.1h1l-1-1v1zm0 2.3v1l1-1h-1zm-3.1 0v-1l-1 1h1zm-3.6 47.3l-1-.5 1 .5zM5.3 79l.3-1-.3 1zM.7 76.8l-.8-.6.2 1.4.6-.8zM6 68.9l.7-.7-1.5.2.8.5zm8.4 8.6l-.7.7 1.7-.7h-1zm0-51h1l-1-1v1zm-3.2-.1h-1l1 1v-1zm0-2.3v-1l-1 1h1zm16 0v2.3h2V24h-2zm1 1.3H25v2h3.2v-2zm-4.2 1v26.8h2V26.4h-2zm0 26.8c0 9.5-1.2 16.1-3.5 20l1.7 1a43.4 43.4 0 003.8-21h-2zm-3.5 20c-2.2 4-5.3 5.8-9.3 5.8v2c4.8 0 8.5-2.3 11-6.8l-1.7-1zM11.2 79a18 18 0 01-5.6-1L5 80c2.1.6 4.2 1 6.2 1v-2zm-5.6-1c-2-.7-3.5-1.3-4.3-2L.1 77.6c1 .9 2.7 1.6 4.9 2.3l.6-1.9zm-4-.6l5.2-8-1.6-1-5.3 7.8 1.6 1.2zm3.7-7.8l8.4 8.6 1.4-1.4-8.4-8.6-1.4 1.4zm10 7.9v-51h-2v51h2zm-.9-52l-3.1-.1v2h3l.1-2zm-2.2.9V24h-2v2.3h2zm-1-1.3h17v-2h-17v2zM45 34.7l-.9.5.9-.5zm2.9 3l-.7.8.7-.7zm4.7 3.4l-.6.8.6-.8zm5.6 4l-.6.8.6-.7zm3.6 4.3l-.9.5 1-.5zm-.3 11.9l.8.5-.8-.5zM31 59l-.6-.8-.3 1.3.9-.5zm7.2-5.6l.9-.4-1.5-.4.6.8zm7 12.3l-1 .6 1 .4v-1zm3.4-1l.5 1v-.1l-.5-.8zm2.6-2.6l.8.6-.8-.6zm-.2-6.9l-.8.6.8-.6zm-2.8-2.9l-.6.8.6-.8zm-4.5-3l-.5.8.5-.8zm-5.6-3.9l-.6.8.6-.8zm-3.6-4l-.9.5.9-.5zm.5-12l-.8-.5.8.5zm5.8-4.6l-.4-.9.4 1zm16.8 0l-.4.9.4-1zm5.8 4.4l.7.7v-1.4l-.7.7zM56.7 36l-.9.5 1.6.2-.7-.7zm-6.9-10.6l.9-.6-.9-.4v1zM45.4 27l.7.7-.7-.7zm-2.6 3.9c0 1.6.5 3 1.3 4.3l1.7-1c-.7-1-1-2.1-1-3.3h-2zm1.3 4.3a14 14 0 003.1 3.3l1.3-1.5c-1.1-.9-2-1.8-2.7-2.9l-1.7 1.1zm3.1 3.3c1.2 1 2.8 2 4.8 3.4l1.1-1.7-4.6-3.2-1.3 1.5zM52 42a57 57 0 015.6 4l1.3-1.5a59 59 0 00-5.8-4.2l-1 1.7zm5.6 4c1.3 1.1 2.4 2.4 3.3 4l1.8-1c-1-1.8-2.3-3.3-3.8-4.5L57.6 46zm3.4 4a9 9 0 011.3 5h2a11 11 0 00-1.6-6l-1.7 1zm1.3 5c0 2-.5 4-1.7 5.9l1.7 1a13 13 0 002-6.9h-2zm-1.7 5.9a12.5 12.5 0 01-5.1 4.4l.9 1.8c2.6-1.3 4.6-3 6-5.2l-1.8-1zm-5.1 4.4A18.9 18.9 0 0147 67v2c3.6 0 6.7-.7 9.4-2l-1-1.8zM47 67c-3.7 0-6.7-.8-9.2-2.2a15 15 0 01-6-6.3l-1.7 1a17 17 0 006.7 7C39.7 68.3 43.1 69 47 69v-2zm-15.4-7.2l7.2-5.6-1.2-1.6-7.2 5.6 1.2 1.6zm5.7-6c2 4.3 4.4 8.5 7 12.5l1.6-1.1c-2.5-4-4.8-8-6.8-12.2l-1.8.9zm7.8 13v-2 2zm0 0c1.5 0 2.8-.4 4-1.2l-1-1.7c-.9.5-1.9.8-3 .8v2zm4-1.2a9 9 0 003-3l-1.8-1a7 7 0 01-2.2 2.3l1 1.7zm3-3a7.5 7.5 0 001-3.9h-2c0 1-.2 2-.8 3l1.7 1zm1-3.9c0-1.5-.4-2.8-1.3-4l-1.6 1.1c.6 1 1 1.9 1 3h2zm-1.3-4a12 12 0 00-3-3.2l-1.1 1.7a10 10 0 012.5 2.6l1.6-1.1zm-3-3.1c-1.1-1-2.6-2-4.6-3.2l-1 1.7 4.4 3 1.3-1.5zm-4.6-3.2a65.4 65.4 0 01-5.5-3.8l-1.2 1.6c1.5 1.2 3.3 2.5 5.7 4l1-1.8zm-5.5-3.8c-1.3-1-2.4-2.3-3.4-3.7l-1.7 1c1.1 1.7 2.4 3.1 4 4.3l1.1-1.6zM35.3 41a9.5 9.5 0 01-1.3-5h-2c0 2.2.5 4.2 1.6 6l1.7-1zm-1.3-5c0-2.2.6-4.1 1.8-5.9l-1.6-1.1a12 12 0 00-2.2 7h2zm1.8-5.9c1.3-1.8 3-3.2 5.4-4.3l-.9-1.8a14.6 14.6 0 00-6.1 5l1.6 1.1zm5.4-4.3c2.3-1 5.1-1.5 8.4-1.5v-2c-3.5 0-6.6.5-9.2 1.7l.8 1.8zm8.4-1.5c3.2 0 5.7.5 7.6 1.5l.9-1.8a18.7 18.7 0 00-8.5-1.7v2zm7.6 1.5c2 1 3.8 2.3 5.5 4.1l1.5-1.3c-1.8-2-3.9-3.6-6.1-4.6l-.9 1.8zm5.5 2.8L56 35.3l1.4 1.4 6.7-6.8-1.4-1.4zm-5.2 7c-2.2-3.8-4.5-7.4-6.8-10.7L49 26c2.3 3.2 4.6 6.7 6.8 10.5l1.7-1zm-7.7-11.1a7 7 0 00-5.1 1.9l1.4 1.4c.8-.8 2-1.3 3.7-1.3v-2zm-5.1 1.9a6.3 6.3 0 00-1.9 4.6h2c0-1.3.5-2.4 1.3-3.2l-1.4-1.4zm54.4-.7l-.5.9.5-1zm7.3 7.2l-.9.4.9-.4zm1 20.6l1 .3-1-.3zm-4.4 8.2l.7.7v-.1l-.7-.6zm-7 4.6l.4 1-.4-1zm-19.4-.7l-.5 1 .5-1zm-7.3-7.1l-.9.4.9-.4zm-1-20.6l1 .3-1-.3zm4.6-8.2l-.7-.8-.1.1.8.7zm6.9-4.6l.4.9-.4-1zm.2 29.3l-.9.4 1-.4zM86 61l-.5.9.5-1zm10 2.4v1l1-.8-1-.2zm1.3-7.5h-1 1zm-1.5-19.1l-1 .4h.1l1-.4zM89.8 30l-.5.9.5-.9zm-10-2.4v-1l-1 .8 1 .2zm-1.2 7.7h-1 1zm9.6-11.1c4 0 7.5.7 10.4 2.3l1-1.8c-3.3-1.7-7.1-2.5-11.4-2.5v2zm10.5 2.3a16 16 0 016.8 6.7l1.8-1a17.9 17.9 0 00-7.7-7.5l-1 1.8zm6.8 6.7c1.7 3 2.5 6.7 2.5 11.1h2c0-4.6-.9-8.7-2.7-12l-1.8 1zm2.5 11.1c0 2.8-.5 5.7-1.5 8.8l2 .6c1-3.2 1.5-6.3 1.5-9.4h-2zm-1.5 8.8c-1 3-2.4 5.5-4.3 7.8l1.6 1.3c2-2.5 3.6-5.3 4.6-8.5l-1.9-.6zm-4.2 7.7c-2 1.9-4.2 3.4-6.7 4.5l.8 1.8c2.7-1.2 5.2-2.8 7.3-4.8l-1.4-1.5zm-6.7 4.5a20 20 0 01-8 1.7v2c3 0 6-.6 8.8-1.9l-.8-1.8zm-8 1.7c-4 0-7.6-.8-10.6-2.4l-.9 1.8c3.3 1.7 7.2 2.6 11.4 2.6v-2zM77 64.6c-2.9-1.5-5.2-3.7-6.8-6.7l-1.8 1c1.9 3.3 4.4 5.8 7.7 7.5l1-1.8zM70.2 58c-1.6-3-2.5-6.7-2.5-11.1h-2c0 4.7.9 8.7 2.7 12l1.8-1zm-2.5-11.1c0-2.8.5-5.6 1.6-8.7l-2-.6a28.6 28.6 0 00-1.6 9.3h2zm1.6-8.7c1-3 2.5-5.6 4.3-8L72.1 29c-2 2.5-3.6 5.4-4.7 8.6l1.9.6zm4.3-7.8c1.9-1.9 4-3.3 6.6-4.4l-.8-1.9a24.9 24.9 0 00-7.2 4.8l1.4 1.5zm6.6-4.4c2.5-1.2 5.2-1.7 8-1.7v-2c-3.1 0-6 .6-8.8 1.8l.8 1.9zm-3 16.4c0 5 .6 9.2 2 12.4l1.8-.8A30.2 30.2 0 0179 42.3h-2zm2 12.4c1.3 3.2 3.4 5.6 6.2 7.2l1-1.8A12.3 12.3 0 0181 54l-1.9.8zm6.2 7.2c2.8 1.5 6.3 2.3 10.5 2.5l.1-2c-4-.2-7.2-1-9.7-2.3l-1 1.8zm11.5 1.7c.6-2.1 1-4.7 1.3-7.6l-2-.2c-.3 2.9-.7 5.3-1.2 7.4l2 .4zm1.3-7.6c.3-2.9.5-5.3.5-7.2h-2c0 1.8-.2 4.1-.5 7l2 .2zm.5-7.2c0-5-.7-9.2-2-12.4l-1.9.8c1.2 2.8 1.9 6.7 1.9 11.6h2zm-2-12.4a14.2 14.2 0 00-6.4-7.3l-1 1.8c2.5 1.3 4.3 3.4 5.5 6.3l1.8-.8zm-6.4-7.3a23.9 23.9 0 00-10.5-2.5l-.1 2c4 .1 7.2 1 9.6 2.3l1-1.8zm-11.6-1.7c-.4 2.2-.8 4.8-1.1 7.8l2 .2c.3-2.9.6-5.4 1-7.6l-1.9-.4zm-1.1 7.8a74 74 0 00-.5 7.1h2c0-1.7.2-4 .5-6.9l-2-.2zm77.8-11h1l-1-1v1zm0 2.2v1l1-1h-1zm-3.2 0v-1l-1 1h1zM150.6 67v1l1-1h-1zm-7.8.1l-.8.5.8.5v-1zm-23-36.4l.8-.5-1.9.6h1zm2.3 34.1h-1l1 1v-1zm3.8 0h1l-1-1v1zm0 2.3v1l1-1h-1zm-13 0h-1l1 1v-1zm0-2.2v-1l-1 1h1zm3.1-.1v1l1-1h-1zm1-38.3h1l-.9-1v1zm-3 0h-1l1 1v-1zm0-2.3v-1l-1 1h1zm15.8 0l.8-.5-.8-.5v1zM148.4 53l-.9.5 1.9-.6h-1zm-1.7-26.6h1l-1-1v1zm-3.8 0h-1l1 1v-1zm0-2.3v-1l-1 1h1zm11.5 0v2.3h2V24h-2zm1 1.3h-3.2v2h3.2v-2zm-4.2 1l-1.6 40.5h2l1.6-40.4-2-.1zm-.6 39.5l-7.8.1v2h7.8v-2zm-7 .6l-23-36.4-1.7 1 23 36.4 1.8-1zm-24.9-35.8l2.4 34h2l-2.4-34.1-2 .1zm3.4 35h3.8v-2h-3.7v2zm2.8-1V67h2v-2.2h-2zm1 1.3h-13v2h13v-2zm-12 1v-2.2h-2V67h2zm-1-1.2l3.1-.1v-2h-3.2v2zm4.1-1l1-38.3-2-.1-1 38.3h2zm.1-39.4H114v2h3l.1-2zm-2.1 1V24h-2v2.3h2zm-1-1.3h15.8v-2H114v2zm15-.4l18.5 28.8 1.7-1-18.6-29-1.7 1.2zm20.4 28.2l-1.7-26.5h-2l1.7 26.6h2zm-2.7-27.5H143v2h3.7v-2zm-2.8 1V24h-2v2.3h2zm-1-1.3h12.5v-2h-12.5v2zm29.8 9.6l-.8.5.8-.5zm3 3l-.7.8.6-.7zm4.6 3.4l-.5.8.5-.8zm5.7 4l-.7.8.7-.7zm3.6 4.3l-.9.5.9-.5zm-.4 11.9l.9.5-.9-.5zM158.7 59l-.6-.8-.3 1.3 1-.5zm7.2-5.6l1-.4-1.6-.4.6.8zm7 12.3l-.9.6.9.4v-1zm3.5-1l.5 1v-.1l-.5-.8zm2.5-2.6l.9.6-.9-.6zm-.2-6.9l-.8.6.8-.6zm-2.7-2.9l-.6.8.6-.8zm-4.6-3l-.5.8.5-.8zm-5.5-3.9l-.6.8.6-.8zm-3.7-4l-.8.5.8-.5zm.5-12l-.8-.5.8.5zm5.8-4.6l-.4-.9.4 1zm16.9 0l-.5.9.5-1zm5.8 4.4l.7.7v-1.4l-.7.7zm-6.8 6.8l-.8.5 1.6.2-.8-.7zm-6.8-10.6l.8-.6-.8-.4v1zM173 27l.7.7-.7-.7zm-2.5 3.9c0 1.6.4 3 1.3 4.3l1.7-1c-.7-1-1-2.1-1-3.3h-2zm1.3 4.3a14 14 0 003 3.3l1.3-1.5c-1-.9-2-1.8-2.6-2.9l-1.7 1.1zm3 3.3l4.9 3.4 1-1.7-4.6-3.2-1.2 1.5zm4.9 3.4a57 57 0 015.5 4l1.3-1.5a58.8 58.8 0 00-5.7-4.2l-1.1 1.7zm5.5 4c1.4 1.1 2.5 2.4 3.4 4l1.7-1c-1-1.8-2.3-3.3-3.8-4.5l-1.3 1.6zm3.4 4a9 9 0 011.4 5h2a11 11 0 00-1.7-6l-1.7 1zm1.4 5c0 2-.6 4-1.7 5.9l1.7 1a13 13 0 002-6.9h-2zm-1.7 5.9a12.5 12.5 0 01-5.2 4.4l1 1.8c2.5-1.3 4.5-3 5.9-5.2l-1.7-1zm-5.2 4.4a18.9 18.9 0 01-8.5 1.8v2c3.6 0 6.8-.7 9.4-2l-.9-1.8zm-8.5 1.8c-3.6 0-6.6-.8-9.1-2.2a15 15 0 01-6-6.3l-1.8 1a17 17 0 006.8 7c2.8 1.7 6.2 2.5 10.1 2.5v-2zm-15.4-7.2l7.3-5.6-1.3-1.6-7.2 5.6 1.2 1.6zm5.7-6c2.1 4.3 4.4 8.5 7 12.5l1.7-1.1c-2.5-4-4.8-8-6.9-12.2l-1.8.9zm7.9 13v-2 2zm0 0c1.4 0 2.8-.4 4-1.2l-1-1.7c-1 .5-2 .8-3 .8v2zm4-1.2a9 9 0 002.9-3l-1.7-1a7 7 0 01-2.3 2.3l1.1 1.7zm2.9-3a7.5 7.5 0 001.1-3.9h-2c0 1-.3 2-.8 3l1.7 1zm1.1-3.9c0-1.5-.5-2.8-1.3-4l-1.7 1.1c.7 1 1 1.9 1 3h2zm-1.3-4a12 12 0 00-3-3.2l-1.2 1.7a10 10 0 012.5 2.6l1.7-1.1zm-3-3.1c-1.1-1-2.7-2-4.6-3.2l-1 1.7 4.4 3 1.2-1.5zm-4.6-3.2a65.6 65.6 0 01-5.5-3.8l-1.2 1.6a67 67 0 005.6 4l1-1.8zm-5.5-3.8c-1.3-1-2.5-2.3-3.4-3.7l-1.7 1c1 1.7 2.4 3.1 3.9 4.3l1.2-1.6zm-3.4-3.7a9.5 9.5 0 01-1.3-5h-2c0 2.2.5 4.2 1.6 6l1.7-1zm-1.3-5c0-2.2.6-4.1 1.8-5.9l-1.7-1.1a12 12 0 00-2.1 7h2zm1.8-5.9c1.2-1.8 3-3.2 5.3-4.3l-.8-1.8a14.6 14.6 0 00-6.2 5l1.7 1.1zm5.3-4.3c2.4-1 5.2-1.5 8.4-1.5v-2c-3.4 0-6.5.5-9.2 1.7l.8 1.8zm8.4-1.5c3.2 0 5.7.5 7.6 1.5l1-1.8a18.7 18.7 0 00-8.6-1.7v2zm7.7 1.5c2 1 3.8 2.3 5.4 4.1l1.5-1.3c-1.8-2-3.8-3.6-6-4.6l-1 1.8zm5.4 2.8l-6.7 6.8 1.5 1.4 6.7-6.8-1.5-1.4zm-5.1 7a182 182 0 00-6.9-10.7l-1.6 1.2c2.3 3.2 4.5 6.7 6.8 10.5l1.7-1zm-7.7-11.1a7 7 0 00-5.2 1.9l1.4 1.4c.8-.8 2-1.3 3.8-1.3v-2zm-5.2 1.9a6.3 6.3 0 00-1.8 4.6h2c0-1.3.4-2.4 1.2-3.2l-1.4-1.4zm47.1 31.4l.7-.6-1.3-.2.6.8zm1 1.2l.9.5-.1-1.2-.8.7zm-6 6.6l-.5-.9.6.9zM197.8 64l-.7.7.7-.7zM196 46l-.9-.4 1 .4zm4.1-6.4l-.4-1-.3.3.7.7zm20.6 5.7l.5.9.4-1.3-1 .4zm-7.4 4.3l-1 .4 1.5.5-.5-.9zm-5.7-9.8l.6-.8h-1.3l.7.8zm-3 4.6l-.8-.3.9.3zm1.1 13.7l.8-.6-.8.6zm6.2 3.6c2.9 0 5.6-1 8.3-3l-1.2-1.7a11.7 11.7 0 01-7.1 2.7v2zm7-3.2l1 1.1 1.5-1.3-1-1.1-1.6 1.3zm.9 0a19.2 19.2 0 01-5.7 6.2l1.1 1.7c2.6-1.8 4.6-4 6.3-7l-1.7-1zm-5.7 6.2a12 12 0 01-7 2.4v2c2.9 0 5.6-1 8.1-2.7l-1.1-1.7zm-7 2.4c-3.6 0-6.4-1.2-8.5-3.5l-1.5 1.3c2.5 2.8 5.9 4.2 10 4.2v-2zm-8.5-3.5c-2-2.4-3.2-5.7-3.2-9.9h-2c0 4.6 1.2 8.3 3.7 11.2l1.5-1.3zm-3.2-9.9c0-2.4.5-4.9 1.6-7.3l-1.9-.8a21 21 0 00-1.7 8.1h2zm1.6-7.3c1-2.5 2.3-4.5 3.9-6.1l-1.5-1.4c-1.7 1.8-3.2 4-4.3 6.7l1.9.8zm3.6-6c1.4-.6 2.8-1.1 4.3-1.5l-.5-2c-1.6.4-3.2 1-4.7 1.8l.9 1.8zm4.3-1.5c1.5-.4 3-.6 4.3-.6v-2c-1.5 0-3.1.2-4.8.6l.5 2zm4.3-.6c2.4 0 4.4.7 6.2 2l1.1-1.7a12.5 12.5 0 00-7.3-2.3v2zm6.2 2c1.8 1.2 3.2 3 4.4 5.5l1.8-.9c-1.3-2.7-3-4.8-5-6.3l-1.2 1.6zm4.8 4.2l-7.4 4.3 1 1.7 7.4-4.3-1-1.7zm-6 4.8c-.6-2-1.6-4-2.8-6l-1.7 1c1.1 2 2 3.8 2.7 5.7l1.9-.7zm-2.8-6c-1.1-2-2.2-3.5-3.2-4.3l-1.3 1.5c.7.6 1.7 1.9 2.8 3.8l1.7-1zm-4.5-4.2a14 14 0 00-3.1 5l1.8.7c.8-2 1.7-3.4 2.7-4.3l-1.4-1.4zm-3.1 5c-.9 2.1-1.3 4.3-1.3 6.6h2c0-2 .4-4 1.1-5.9l-1.8-.7zm-1.3 6.6c0 3.4.8 6.1 2.4 8l1.6-1.2c-1.3-1.5-2-3.7-2-6.8h-2zm2.4 8c1.7 2 4 3 7 3v-2c-2.5 0-4.2-.8-5.4-2.2l-1.6 1.3zm47.5 6.5h1l-.9-1v1zm0 1.9v1l1-1h-1zm-13.7 0h-1l1 1v-1zm0-1.9v-1l-1 1h1zm2.4-.1v1l1-1h-1zM239.4 47l-.7.7.7-.7zm-4.3-1.6v-1l-.7.3.7.7zm-2.1 2.1l-.7-.7-.3.7h1zm-.1 17.4h-1l.9 1v-1zm2.3.1h1l-.9-1v1zm0 1.9v1l1-1h-1zm-13.7 0h-1l1 1v-1zm0-1.9l-.1-1-1 1h1zm2.3-.1l.1 1 1-1h-1zm-.3-38.4h1l-1.2-1 .2 1zm-2.4.5l-1 .4 1.2.6-.2-1zm-.7-1.8l-.2-1-.7 1.3 1-.3zm11.9-3.6l.8-.5-1.1-.5.3 1zm.9 1.5h1l-.2-.5-.8.5zm-.2 21.3h-1l1.8.6-.8-.6zm5.2-7.4v-1l-.8.4.8.6zM250 65h-1l1 1v-1zm1.3.1V67h2v-1.9h-2zm1 .9h-13.7v2h13.7v-2zm-12.7 1v-1.9h-2V67h2zm-.9-.9l2.4-.2-.2-2-2.4.2.2 2zM242 65V51.4h-2V65h2zm0-13.6c0-2-.6-3.8-2-5l-1.3 1.4c.8.8 1.3 2 1.3 3.6h2zm-1.9-5a7 7 0 00-5-1.9v2c1.6 0 2.8.5 3.6 1.3l1.4-1.4zm-5.7-1.6l-2.1 2.1 1.4 1.4 2.1-2.1-1.4-1.4zm-2.4 2.8l-.1 17.3h2V47.7h-2zm.8 18.3l2.3.2.2-2-2.4-.1-.1 2zm1.4-.8V67h2v-1.9h-2zm1 .9h-13.7v2h13.7v-2zm-12.7 1v-1.9h-2V67h2zm-1-.9l2.4-.2-.1-2-2.4.2.2 2zm3.3-1.2l-.3-38.3h-2l.3 38.4h2zm-1.5-39.3l-2.4.5.4 2 2.4-.5-.4-2zm-1.3 1.2l-.6-1.9-1.9.7.6 1.9 2-.7zm-1.3-.6l11.9-3.6-.6-1.9-11.8 3.6.5 2zm10.7-4l1 1.5 1.6-1-.8-1.5-1.8 1zm.8 1l-.2 21.3h2l.2-21.3h-2zm1.6 22l5.2-7.5-1.6-1.2-5.2 7.5 1.6 1.1zm4.4-7c3.9 0 6.6.8 8.2 2.5l1.4-1.4c-2.1-2.2-5.4-3.2-9.6-3.2v2zm8.2 2.5c1.7 1.7 2.6 4.3 2.6 8.2h2c0-4.2-1-7.4-3.2-9.6l-1.4 1.4zm2.6 8.2v16h2V49h-2zm1 17l2.2.2.2-2-2.3-.1-.2 2zm27.8-24.6l-.8.7.8-.7zm3.2 11v1l1-1h-1zm-17.6.6v-1l-1 1h1zm2.6 5.7l.7-.7-.7.7zm13.9-.8l.6-.7h-1.3l.7.7zm1.1 1l1 .5-.3-1.2-.7.8zm-6 6.8l.5.8-.5-.8zM257.6 64l-.7.7.7-.7zM255.8 46l-1-.4 1 .4zm4-6.4l-.5-.9-.2.2.7.7zm4.3-1.6l.2 1-.2-1zm7.5 12.3v1l1-1h-1zm-1.3-7.1l-1 .4 1-.4zm-3.5-3.2l.3-1-1 .3.7.7zm-2.6 4.7l-1-.3 1 .3zm-1 6.3h-1l1.1 1v-1zm5.8-12.7c3.5 0 6.1 1.3 8 3.8l1.6-1.3c-2.3-3-5.6-4.5-9.6-4.5v2zm8 3.8c2 2.4 3 5.8 3 10.3h2c0-4.8-1-8.7-3.4-11.6l-1.5 1.3zm4 9.3l-17.7.6.1 2 17.7-.6-.1-2zM262.4 53a9.9 9.9 0 003 6.4l1.3-1.5a8 8 0 01-2.3-5.2l-2 .3zm3 6.4a9.2 9.2 0 006.4 2.2v-2c-2.2 0-3.9-.6-5.1-1.7l-1.4 1.5zm6.4 2.2c3.5 0 6.4-1 8.7-3l-1.3-1.5a10.9 10.9 0 01-7.4 2.5v2zm7.4-3l1.2 1 1.3-1.5-1.2-1-1.3 1.5zm1-.2a16.2 16.2 0 01-5.8 6.3l1 1.7c2.8-1.7 5-4 6.5-7l-1.8-1zm-5.8 6.3A14 14 0 01267 67v2c3 0 6-.9 8.6-2.6l-1-1.7zM267 67c-3.6 0-6.5-1.2-8.5-3.5l-1.5 1.3c2.5 2.8 5.9 4.2 10 4.2v-2zm-8.5-3.5c-2.1-2.4-3.2-5.7-3.2-9.9h-2c0 4.6 1.2 8.3 3.7 11.2l1.5-1.3zm-3.2-9.9c0-2.4.5-4.9 1.5-7.3l-1.9-.8c-1 2.7-1.6 5.4-1.6 8.1h2zm1.5-7.3c1-2.5 2.3-4.5 3.8-6.1l-1.4-1.4c-1.8 1.8-3.2 4-4.3 6.7l1.9.8zm3.6-6c1-.5 2.3-1 4-1.4l-.5-2c-1.8.4-3.3 1-4.5 1.7l1 1.7zm4-1.4c1.7-.5 3.3-.7 4.7-.7v-2c-1.6 0-3.3.3-5.2.7l.5 2zm8.3 11.3c0-3.1-.5-5.6-1.4-7.6l-1.8.9c.7 1.6 1.1 3.8 1.2 6.7h2zm-1.4-7.6c-1-2-2.3-3.2-4.1-3.6l-.5 1.9c1.1.3 2 1 2.8 2.6l1.8-.9zm-5-3.4c-1.3 1.3-2.2 3-3 5l2 .7c.6-1.9 1.4-3.3 2.3-4.3l-1.4-1.4zm-3 5c-.6 2.2-1 4.3-1 6.5h2c0-2 .3-4 1-5.8l-2-.6zm-1 6.5v.2h2v-.2h-2zm1.1 1.2l8.3-.7-.1-2-8.3.7.1 2zm67 13.2h1l-.9-1v1zm0 1.9v1l1-1h-1zm-13.7 0h-1l1 1v-1zm0-1.9v-1l-1 1h1zm2.4-.1l.1 1 1-1h-1zM317.5 47l-.7.7.7-.7zm-4-1.7l.1-1-.7.3.7.7zm-2.3 2.4l-.7-.7-.3.7h1zm0 17.2h-1l1 1v-1zm2.3.1h1l-1-1v1zm0 1.9v1l1-1h-1zm-13.7 0h-1l1 1v-1zm0-1.9v-1l-1 1h1zm2.4-.1v1l1-1h-1zM300.7 47l-.7.7.7-.7zm-4-1.6v-1l-.7.3.7.7zm-2 2.1l-.8-.7-.3.7h1zm-.3 17.4h-1l.9 1v-1zm2.3.1h1l-.9-1v1zm0 1.9v1l1-1h-1zM283 67h-1l1 1v-1zm0-1.9l-.1-1-1 1h1zm2.4-.1v1l1-1h-1zm-.2-23h1l-1.3-1 .3 1zm-2.5.6l-1 .3 1.3.7-.3-1zm-.6-1.9l-.3-1-.7 1.3 1-.3zm10.1-3.1l1-.3-1.3-.7.3 1zm2.2 7.1l-1 .3 1.9.3-.9-.6zm5.4-7.6v-1l-.9.4.9.6zm7.6 2l-.6.8.6-.8zm3.5 6.1l-1 .2 1.8.4-.8-.6zm5.7-8.2v-1l-.8.5.8.5zm8.6 3l-.7.6.7-.7zm2.8 25h-1l1 1v-1zm1.3.1V67h2v-1.9h-2zm1 .9h-13.7v2h13.7v-2zm-12.7 1v-1.9h-2V67h2zm-.9-.9l2.4-.2-.2-2-2.3.2.1 2zM320 65V51.4h-2V65h2zm0-13.6a7 7 0 00-1.7-5l-1.5 1.4c.8.8 1.2 2 1.2 3.6h2zm-1.7-5a6.2 6.2 0 00-4.7-2v2c1.4 0 2.5.5 3.2 1.4l1.5-1.4zm-5.4-1.7l-2.4 2.4 1.4 1.4 2.4-2.4-1.4-1.4zm-2.7 3.1v1h2v-1h-2zm0 1V65h2V48.9h-2zm1 17.1l2.2.2.2-2-2.3-.1-.2 2zm1.3-.8V67h2v-1.9h-2zm1 .9h-13.7v2h13.7v-2zm-12.7 1v-1.9h-2V67h2zm-1-.9l2.5-.2-.2-2-2.4.2.2 2zm3.4-1.1V51.4h-2V65h2zm0-13.6a7 7 0 00-1.8-5l-1.4 1.4c.7.8 1.2 2 1.2 3.6h2zm-1.8-5a6.3 6.3 0 00-4.6-1.9v2c1.4 0 2.5.5 3.2 1.3l1.4-1.4zm-5.4-1.6l-2 2.1 1.3 1.4 2.1-2.1-1.4-1.4zm-2.4 2.8l-.2 17.3h2l.2-17.3h-2zm.7 18.3l2.4.2.1-2-2.3-.1-.2 2zm1.4-.8V67h2v-1.9h-2zm1 .9H283v2h13.7v-2zM284 67v-1.9h-2V67h2zm-1-.9l2.4-.2-.1-2-2.4.2.2 2zm3.4-1.2l-.2-22.9h-2l.2 23h2zm-1.5-23.8l-2.4.5.5 2 2.4-.6-.5-2zm-1.2 1.2l-.7-2-1.9.7.7 2 1.9-.7zm-1.3-.6l10.1-3.2-.6-1.9-10.1 3.1.6 2zm8.8-3.8l2.3 7.1 1.9-.6-2.2-7.1-2 .6zm4 7.4l5.4-7.6-1.7-1.2-5.3 7.7 1.7 1.1zm4.6-7.2c3.1 0 5.4.7 7 1.8l1.2-1.6c-2-1.5-4.8-2.2-8.2-2.2v2zm7 1.8c1.6 1.1 2.6 3 3.1 5.5l2-.3c-.6-3-1.9-5.3-4-6.8l-1.1 1.6zm5 6l5.6-8.3-1.6-1.1-5.7 8.2 1.6 1.1zm4.8-7.9c3.8 0 6.3 1 7.9 2.6l1.4-1.4c-2-2.2-5.3-3.2-9.3-3.2v2zm8 2.6C326 42.3 327 45 327 49h2c0-4.2-1-7.5-3-9.7l-1.5 1.4zM327 49v16h2V49h-2zm1 17l2.3.2.1-2-2.3-.1-.1 2zm30.3-2.2l.4.9.5-1.3-1 .4zm-9.4 4.4l-.6.8h1l-.4-.8zm-2.4-3.3l1-.3-1.5-.6.5.9zm-4.7 2.3l-.3-1 .3 1zm-9.7-8.5l-1-.2 1 .2zm.8-2.4l-.2-1-.7.5.9.5zm13.5-2.2l.2 1 .8-1h-1zm.2-1.8h1-1zm-1.3-4.5l-.7.6.7-.6zm-7.1-1.4l.1 1-.1-1zm-2.5.7l-.4-.9-.5.5.9.4zm-1 2.2l-.4 1 1.3-.6-1-.4zm-1.8-.6l-1-.3.7 1.2.3-1zm3-9.2l-.4-1-.6.6 1 .4zm16.7.3l-.6.7.6-.7zm3 7.5h1-1zm-.1 1.2l1 .1h-1zm-.7 8.7h-1 1zm-.1 2.3h-1 1zm.2 1.8l-1 .3 1-.3zm.6 1.4l-.8.5 1.2.4-.4-1zm2-.8l1-.4-1.4-.5.4 1zm-11.4.8l.5.9.5-1h-1zm0-1.4h-1 1zm0-1.4h-1 1zm.2-3.6h1l-1.2-1 .2 1zm-5 1.1l-.2-1-.7.7 1 .3zm.6 5.2l-.8.6.8-.6zm16 .3l-9.5 4.4.9 1.8 9.4-4.4-.9-1.8zm-8.5 4.5c-1-.7-1.6-1.6-2-2.8l-1.9.5c.5 1.7 1.4 3 2.8 4l1.1-1.7zm-3.4-3.4a27 27 0 01-4.5 2.2l.7 1.9c1.6-.6 3.2-1.4 4.8-2.4l-1-1.7zm-4.5 2.2c-1.5.6-2.7.9-3.7.9v2c1.3 0 2.8-.4 4.4-1l-.7-1.9zm-3.7.9c-1.5 0-2.6-.6-3.6-1.6l-1.4 1.4c1.3 1.4 3 2.2 5 2.2v-2zm-3.6-1.6c-.9-1-1.4-2.3-1.4-4h-2c0 2 .7 4 2 5.4l1.4-1.4zm-1.4-4l.3-2.6-2-.4-.3 3h2zm.3-2.6c.2-1 .4-1.7.7-2.2l-1.8-.9c-.4.7-.7 1.6-.9 2.7l2 .4zm0-1.6l13.5-2.2-.3-2-13.6 2.2.3 2zm14.3-3.1l.2-1.9-2-.1-.2 1.8 2 .2zm.2-1.9c0-2-.4-3.9-1.5-5.2l-1.5 1.3c.7.8 1 2 1 3.8l2 .1zM346 47c-1.1-1.4-3-2-5.1-2v2c1.8 0 3 .5 3.6 1.3L346 47zm-5.1-2c-1 0-2 .1-3 .4l.4 2c.9-.3 1.8-.4 2.6-.4v-2zm-3 .3l-2.7.8.8 1.8a10 10 0 012.2-.6l-.3-2zm-3.2 1.3l-1 2.2 1.8.8 1-2.1-1.8-.9zm.2 1.7l-1.7-.7-.7 2 1.7.5.7-1.8zm-1.1.6l3-9.2-2-.7-3 9.3 2 .6zm2.4-8.6c3.1-1.4 6.1-2 9-2v-2c-3.2 0-6.4.7-9.8 2.1l.8 1.9zm9-2c2.8 0 5 .7 6.7 2.1l1.3-1.5a12.1 12.1 0 00-8-2.7v2zm6.7 2.1c1.6 1.4 2.5 3.5 2.5 6.8h2c0-3.6-1-6.5-3.2-8.3l-1.3 1.5zm2.5 6.7v1.3h2v-1.2h-2zm0 1.3l-.7 8.6 2 .2.6-8.7-2-.1zm-.7 8.6l-.1 2.3 2 .1.1-2.3h-2zm-.1 2.4c0 .8 0 1.5.2 2.1l2-.5c-.2-.4-.2-.9-.2-1.6h-2zm.2 2.1l.8 1.6 1.7-1-.6-1.1-1.9.5zm2 2l2-.8-.8-1.8-2 .8.8 1.8zm.7-1.3l.7 1.9 1.9-.8-.8-1.9-1.8.8zm-12.9 2.2c1 0 2-.4 2.9-1l-1-1.7a4 4 0 01-1.9.7v2zm3.4-1.9v-1.3h-2v1.4h2zm0-1.2v-1.4l-2-.1v1.4h2zm0-1.4l.2-3.7h-2l-.2 3.6h2zm-1-4.7l-5 1.2.5 2 5-1.2-.5-2zm-5.7 1.8c-.2.7-.3 1.6-.3 2.6h2l.2-2-1.9-.6zm-.3 2.6c0 1.4.3 2.6 1 3.5l1.6-1.3c-.3-.4-.6-1-.6-2.2h-2zm1 3.5c.7.8 1.6 1.3 2.6 1.3v-2c-.4 0-.7-.2-1-.6l-1.6 1.3z"/>
  <mask id="a" fill="#fff">
    <path d="M202.8 174V135c3.8-3 4.2-6 4.2-10.4v-.1a17 17 0 00-5.6-11.8v-5c0-3-2.5-5.6-5.6-5.6h-25.3c-3.1 0-5.5 2.5-5.5 5.6v5.2c-4 5.4-4.2 7.4-4.2 17.2 0 5.2 1.4 11 1.7 12.7-.8 3.2.8 6.6 4 7.7 1.3.4 2.9.4 4.1 0 0 2.5 1.7 5 4.2 5.8h.2a6.2 6.2 0 005.4-.6c.6 3 3.2 5.2 6.3 5.2 1.3 0 2.5-.4 3.5-1.1V174c0 3.5 2.8 6.3 6.3 6.3s6.3-2.8 6.3-6.3zm-35.3-60c.2-.2.3-.5.3-.8v-5.6c0-1.5 1.3-2.8 2.7-2.8h25.3c1.5 0 2.8 1.3 2.8 2.8v5.6c0 .4.1.8.6 1.1 0 0 4.9 4.2 5 10 0 4.4-.3 6.4-3.6 8.6l-.2.2-1.3 1-11.3 8.5c-2.2 1.4-4 1.8-5.1 1-.8-.6-1-1.8-.9-3l.2-.4a38.2 38.2 0 015.5-8.3c3.2-3.8 6.9-7.4 8.6-8 .7-.4 1-1.2.7-1.9-.3-.7-1.1-1-1.8-.7-2 .9-5.7 4.3-9 8l-1.4-.7-.3-.2a6.1 6.1 0 00-4.5.2c-.4-2.1-2-4-4.1-4.8a6.4 6.4 0 00-8 4l-3.3 9.5c-.4-2.2-.8-4.9-.8-7.3 0-9.8.2-11 4-16zm9.4 17l-3.8 10.9-1.3 3.7c-.2.7-.6 1.2-1.1 1.6a3.5 3.5 0 01-3.2.4c-1.8-.5-2.8-2.5-2-4.5v-.4l4.8-14c.7-2 2.7-2.8 4.5-2.2.9.3 1.6 1 2 1.8.3.4.4 1 .4 1.5s-.1.9-.3 1.2zm3.2 20.4c-.2.8-.8 1.5-1.6 2-.7.4-1.7.4-2.6.1l-.2-.1c-.7-.3-1.2-.6-1.6-1.1-.6-.9-.7-2-.4-3l1-2.8v-.7l1.1-3 3.4-9.7a3.4 3.4 0 014.3-2.1l.3.1c.1 0 .4.1.5.3l-.2.3a35.5 35.5 0 00-4.7 7.2c-.3.7-.4 1.4-.4 2.2v.2c0 1 .2 2 .7 2.8a7.7 7.7 0 002.1 2.8l-1.7 4.5zm3.3 3v-.5l.4-3.2-.1-.6 1-3.2.1-.2c1.3-.2 2.8-.7 4.6-1.9l.8-.5.3 10.5c0 .8-.4 1.6-1 2.2a4 4 0 01-2.5 1c-2 0-3.6-1.6-3.6-3.5zm9.6 19.7v-19.3-12.3-.2l7-5.3v37c0 2-1.5 3.6-3.5 3.6S193 176 193 174z"/>
  </mask>
  <path stroke="url(#paint1_diamond)" stroke-linejoin="bevel" stroke-width="2" d="M202.8 174V135c3.8-3 4.2-6 4.2-10.4v-.1a17 17 0 00-5.6-11.8v-5c0-3-2.5-5.6-5.6-5.6h-25.3c-3.1 0-5.5 2.5-5.5 5.6v5.2c-4 5.4-4.2 7.4-4.2 17.2 0 5.2 1.4 11 1.7 12.7-.8 3.2.8 6.6 4 7.7 1.3.4 2.9.4 4.1 0 0 2.5 1.7 5 4.2 5.8h.2a6.2 6.2 0 005.4-.6c.6 3 3.2 5.2 6.3 5.2 1.3 0 2.5-.4 3.5-1.1V174c0 3.5 2.8 6.3 6.3 6.3s6.3-2.8 6.3-6.3zm-35.3-60c.2-.2.3-.5.3-.8v-5.6c0-1.5 1.3-2.8 2.7-2.8h25.3c1.5 0 2.8 1.3 2.8 2.8v5.6c0 .4.1.8.6 1.1 0 0 4.9 4.2 5 10h0c0 4.4-.3 6.4-3.6 8.6l-.2.2-1.3 1-11.3 8.5c-2.2 1.4-4 1.8-5.1 1-.8-.6-1-1.8-.9-3l.2-.4a38.2 38.2 0 015.5-8.3c3.2-3.8 6.9-7.4 8.6-8 .7-.4 1-1.2.7-1.9-.3-.7-1.1-1-1.8-.7-2 .9-5.7 4.3-9 8l-1.4-.7-.3-.2a6.1 6.1 0 00-4.5.2c-.4-2.1-2-4-4.1-4.8a6.4 6.4 0 00-8 4l-3.3 9.5c-.4-2.2-.8-4.9-.8-7.3 0-9.8.2-11 4-16zm9.4 17l-3.8 10.9-1.3 3.7c-.2.7-.6 1.2-1.1 1.6a3.5 3.5 0 01-3.2.4c-1.8-.5-2.8-2.5-2-4.5v-.4l4.8-14c.7-2 2.7-2.8 4.5-2.2.9.3 1.6 1 2 1.8.3.4.4 1 .4 1.5s-.1.9-.3 1.2zm3.2 20.4c-.2.8-.8 1.5-1.6 2-.7.4-1.7.4-2.6.1l-.2-.1c-.7-.3-1.2-.6-1.6-1.1-.6-.9-.7-2-.4-3l1-2.8v-.7l1.1-3 3.4-9.7a3.4 3.4 0 014.3-2.1l.3.1c.1 0 .4.1.5.3l-.2.3a35.5 35.5 0 00-4.7 7.2c-.3.7-.4 1.4-.4 2.2v.2c0 1 .2 2 .7 2.8a7.7 7.7 0 002.1 2.8l-1.7 4.5zm3.3 3v-.5l.4-3.2-.1-.6 1-3.2.1-.2c1.3-.2 2.8-.7 4.6-1.9l.8-.5.3 10.5c0 .8-.4 1.6-1 2.2a4 4 0 01-2.5 1c-2 0-3.6-1.6-3.6-3.5zm9.6 19.7v-19.3-12.3-.2l7-5.3v37c0 2-1.5 3.6-3.5 3.6S193 176 193 174z" mask="url(#a)"/>
  <path fill="url(#paint2_diamond)" d="M105.2 251.8h1l-1-1v1zm0 2.2v1l1-1h-1zm-15.5 0l-.9.5 1 .5v-1zM81 236.8l-.5-.8-.4 1.3 1-.5zm.2 0l.6.8-.7-1.9.1 1zm-4.1.2v-1l-1 1h1zm0 14.7h-1l1 1v-1zm3.1 0h1l-1-1v1zm0 2.3v1l1-1h-1zm-16.9 0h-1l1 1v-1zm0-2.2v-1l-1 1h1zm3.1-.1v1l1-1h-1zm0-38.3h1l-1-1v1zm-3.1 0h-1l1 1v-1zm0-2.3v-1l-1 1h1zm12.4.1v1-1zm9.5-.7v-1 1zm7.9 1.7l-.5.9.5-.9zm5 4.6l-1 .5h.1l.9-.5zm-.6 13.1l.8.7-.8-.7zm-7 4.8l-.3-1-.5 1.5.9-.5zm11.5 17l-.8.6.8.4v-1zm-25-17.2h-1l1.1 1v-1zm8.4-2.9l.6.8-.6-.8zm-2.5-16.8l-.5.9.5-.9zm-5.8-1.4v-1l-1 1h1zm27 38.4v2.2h2v-2.2h-2zm1 1.2H89.8v2h15.5v-2zm-14.5.5L82 236.4l-1.8.9 8.7 17.2 1.8-1zm-9-15.8l.2-.1-1.1-1.7-.2.1 1 1.7zm-.5-2l-4 .3v2l4.2-.3-.2-2zm-5 1.3v14.7h2V237h-2zm1 15.7h3l.1-2h-3.1v2zm2.1-1v2.3h2v-2.2h-2zm1 1.3H63.3v2h16.9v-2zm-15.9 1v-2.2h-2v2.2h2zm-1-1.2l3.2-.1v-2h-3.2v2zm4.1-1.1v-38.3h-2v38.3h2zm-1-39.3h-3l-.1 2h3.1v-2zm-2.1 1V211h-2v2.3h2zm-1-1.3l12.3.1v-2H63.4v2zm12.4.1l9.6-.7-.2-2-9.5.8.1 2zm9.5-.7c3 0 5.4.5 7.4 1.6l1-1.8a17.6 17.6 0 00-8.4-1.8v2zm7.4 1.6c2 1 3.6 2.4 4.6 4.2l1.7-1c-1.2-2.2-3-3.8-5.4-5l-.9 1.8zm4.6 4.2c1 1.7 1.6 3.6 1.6 5.7h2c0-2.5-.6-4.7-1.9-6.8l-1.7 1zm1.6 5.7c0 2.5-.7 4.5-2.1 6.3l1.6 1.3c1.7-2.2 2.5-4.7 2.5-7.6h-2zm-2.1 6.3a14.8 14.8 0 01-6.5 4.4l.7 1.9c3.2-1.2 5.7-3 7.4-5l-1.6-1.3zm-7 6l11.5 17 1.7-1.2-11.5-17-1.7 1.1zm12.3 17.4h3.1v-2h-3l-.1 2zm-24.9-17.2c3.7-.2 6.7-1.3 9-3.1l-1.4-1.6a12.8 12.8 0 01-7.7 2.7l.1 2zm9-3.1c2.2-2 3.3-4.6 3.3-7.8h-2c0 2.7-1 4.7-2.7 6.2l1.3 1.6zm3.3-7.8c0-2.3-.5-4.4-1.6-6.2l-1.7 1c.8 1.5 1.3 3.2 1.3 5.2h2zm-1.6-6.2c-1-1.9-2.6-3.4-4.4-4.4l-1 1.7c1.5.9 2.8 2.1 3.7 3.7l1.7-1zm-4.4-4.4c-1.9-1.1-4-1.6-6.3-1.6v2c2 0 3.8.4 5.3 1.3l1-1.7zm-7.3-.6v21h2v-21h-2zm59.2 36.3l.5.9.4-1.2-1 .3zm-8.9 5l-.5 1h1l-.5-1zm-3-2.9l-1 .5h.1l.9-.5zm-1-4.8h1l-1.8-.6.8.6zm-5.5 8v1l.8-.5-.8-.5zm-8.9-3l-.7.8.7-.7zm-2.9-24.8h1l-.9-1v1zm-2.3-.1h-1l.9 1v-1zm0-1.9v-1l-1 1h1zm11.4 0h1l-1-1v1zm1.4 19.8l-.7.7.7-.7zm4 1.6v1l.8-.3-.7-.7zm2.8-2.6l.7.7.3-.7h-1zm0-16.8h1l-.9-1v1zm-2.3-.1h-1l1 1v-1zm0-1.9v-1l-1 1h1zm11.4 0h1l-1-1v1zm.2 21.6l-1 .2 1-.2zm1 2l-.8.6 1.2.2-.4-.8zm1.9-1l1-.4-1.5-.5.5.9zm.2 1l-8.9 5.1 1 1.7 8.9-5-1-1.8zm-8 5a6 6 0 01-2.5-2.4l-1.8.9a8 8 0 003.4 3.4l1-1.8zm-2.5-2.4a9.9 9.9 0 01-.9-4.4h-2c0 2 .4 3.8 1 5.3l1.9-1zm-2.7-5l-5.5 8 1.6 1.1 5.6-8-1.7-1.1zm-4.7 7.6c-3.8 0-6.5-1-8.2-2.6l-1.4 1.4c2.2 2.2 5.5 3.2 9.6 3.2v-2zm-8.2-2.6c-1.6-1.7-2.6-4.4-2.6-8.3h-2c0 4.1 1 7.5 3.2 9.7l1.4-1.4zm-2.6-8.3v-15.9h-2v15.9h2zm-.9-16.8l-2.3-.2-.2 2 2.4.1.1-2zm-1.4.8v-1.9h-2v1.9h2zm-1-.9h11.4v-2h-11.4v2zm10.4-1v15.3h2v-15.3h-2zm0 15.3c0 2 .5 3.8 1.7 5.2l1.5-1.4c-.8-.8-1.2-2-1.2-3.8h-2zm1.7 5.2a6.7 6.7 0 004.8 1.9v-2c-1.4 0-2.5-.5-3.3-1.3l-1.5 1.4zm5.5 1.6l2.7-2.6-1.4-1.4-2.7 2.5 1.4 1.5zm3-3.3v-16.8h-2V244h2zm-.9-17.7l-2.3-.2-.2 2 2.3.1.2-2zm-1.4.8v-1.9h-2v1.9h2zm-1-.9h11.4v-2H120v2zm10.4-1v18h2v-18h-2zm0 18c0 1.6 0 3 .2 3.8l2-.4c-.2-.7-.2-1.8-.2-3.4h-2zm.2 3.8c.3 1 .7 1.7 1.2 2.4l1.6-1.3c-.4-.4-.6-1-.8-1.6l-2 .5zm2.4 2.6l2-1-1-1.7-1.9 1 1 1.7zm.5-1.5l.8 2 1.8-.7-.7-2-1.9.7zm33.5 4h1l-.9-1v1zm0 1.9v1l1-1h-1zm-13.7 0h-1l1 1v-1zm0-1.9v-1l-1 1h1zm2.4-.1l.1 1 1-1h-1zm-1.6-17.9l-.7.7.7-.7zm-4.3-1.6v-1l-.7.3.7.7zm-2 2.1l-.7-.7-.3.7h1zm-.3 17.4h-1l1 1v-1zm2.4.1h1l-1-1v1zm0 1.9v1l1-1h-1zm-13.8 0h-1l1 1v-1zm0-1.9v-1l-1 1h1zm2.4-.1v1l1-1h-1zm-.2-23h1l-1.2-1 .2 1zm-2.4.6l-1 .3 1.2.7-.2-1zm-.7-1.9l-.3-1-.6 1.3 1-.3zm10.1-3.1l1-.3-1.2-.7.2 1zm2.3 7.1l-1 .3 1.8.3-.8-.6zm5.3-7.6v-1l-.8.4.8.6zm11.8 27.9h-1l1 1v-1zm1.3.1v1.9h2v-1.9h-2zm1 .9h-13.7v2h13.7v-2zm-12.7 1v-1.9h-2v1.9h2zm-.9-.9l2.4-.2-.2-2-2.3.2.1 2zm3.3-1.1v-13.6h-2V252h2zm0-13.6c0-2-.6-3.8-1.9-5l-1.4 1.4c.8.8 1.3 2 1.3 3.6h2zm-1.9-5a7 7 0 00-5-1.9v2c1.7 0 2.8.5 3.6 1.3l1.4-1.4zm-5.7-1.6l-2 2.1 1.4 1.4 2-2.1-1.4-1.4zm-2.3 2.8l-.3 17.3h2l.3-17.3h-2zm.6 18.3l2.4.2.2-2-2.4-.1-.2 2zm1.5-.8v1.9h2v-1.9h-2zm1 .9h-13.8v2H150v-2zm-12.8 1v-1.9h-2v1.9h2zm-.9-.9l2.4-.2-.2-2-2.3.2.1 2zm3.3-1.2l-.2-22.9h-2l.2 23h2zm-1.4-23.8l-2.5.5.5 2 2.4-.6-.4-2zm-1.3 1.2l-.6-2-2 .7.7 2 2-.7zm-1.3-.6l10.1-3.2-.5-1.9-10.2 3.1.6 2zm8.9-3.8l2.2 7.1 2-.6-2.3-7.1-2 .6zm4 7.4l5.3-7.6-1.6-1.2-5.3 7.7 1.6 1.1zm4.5-7.2c4 0 6.6 1 8.3 2.6l1.4-1.4c-2.2-2.2-5.5-3.2-9.7-3.2v2zm8.3 2.6c1.6 1.7 2.5 4.3 2.5 8.2h2c0-4.2-1-7.4-3.1-9.6l-1.4 1.4zm2.5 8.2v16h2v-16h-2zm1 17l2.3.2.1-2-2.3-.1-.1 2zm23.9-4l.6.9.3-1.3-1 .4zm-7.8 5.7v1l.6-.2-.6-.8zm-7-2.3l-.7.6.8-.6zm-2-24.6h1l-1-1v1zm-4.3 0h-1l1 1v-1zm0-2l-.5-1-.5 1h1zm5.8-4.2l.6.7-.6-.7zm5.8-5.8l.3-1-1 .4.7.6zm2.1.7h1l-.7-1-.3 1zm-.3 8.8h-1l1 1v-1zm7.5 0h1l-1-1v1zm0 2.7v1l1-1h-1zm-7.6-.1v-1l-1 1h1zM182 247l-.7.6.7-.6zm3.2 1.4v1l.5-.2-.5-.8zm2.4-1.4l.9-.5-1.4-.3.5.8zm.5 1.1l-7.8 5.7 1.2 1.6 7.8-5.6-1.2-1.7zm-7.2 5.5c-3 0-5-.8-6.2-2l-1.5 1.4c1.8 1.8 4.4 2.6 7.7 2.6v-2zm-6.2-2c-1.1-1.3-1.8-3.5-1.8-6.9h-2c0 3.6.7 6.4 2.3 8.2l1.5-1.3zm-1.8-6.9v-17h-2v17h2zm-1-18h-4.3v2h4.3v-2zm-3.3 1v-2h-2v2h2zm-.5-1.2a36 36 0 006-4.3l-1.4-1.5a34 34 0 01-5.6 4l1 1.8zm6-4.3c2.1-1.8 4-3.8 5.9-5.8l-1.5-1.3c-1.7 2-3.7 3.8-5.8 5.6l1.4 1.5zm4.8-5.5l2.1.6.6-1.9-2-.6-.7 1.9zm1.4-.4l-.3 8.9h2l.3-8.8h-2zm.7 9.9h7.5v-2H181v2zm6.5-1v2.7h2v-2.7h-2zm1 1.7l-7.6-.1v2h7.6v-2zm-8.6.9v14.7h2v-14.7h-2zm0 14.7c0 2.1.4 3.9 1.4 5l1.5-1.2c-.5-.6-1-1.9-1-3.8h-2zm1.4 5.1a5 5 0 004 1.8v-2a3 3 0 01-2.5-1l-1.5 1.2zm4.4 1.6l2.4-1.3-1-1.7-2.4 1.3 1 1.7zm1-1.7l1.1 2 1.8-1-1.1-2-1.8 1zm33.3-22.3h1l-1-1v1zm0 2v1l1-1h-1zm-1.8.1v-1l-1 .6 1 .4zm-8.1 18.9l-1-.4 1 .4zm-7 14.4l-.8-.5.9.5zm-6.3 10.4l-.7.7 1.5-.1-.8-.6zm-7.6-7.2l-.5-.9-.2 1.6.7-.7zm14.2-10l.7.8-.7-1.8v1zm-3.5.2l-1 .3 1 .7v-1zm-9.9-26.7l1-.3-1-.7v1zm-1.8 0h-1l1 1v-1zm0-2.1v-1l-1 1h1zm15.1 0h1l-1-1v1zm0 2v1l1-1h-1zm-2.6.1v-1l-1 1.3 1-.3zm5.8 19.6l-1 .3h2l-1-.3zm5.2-19.6l1 .3-1-1.3v1zm-2.7 0h-1l1 1v-1zm0-2.1v-1l-1 1h1zm10 0v2h2v-2h-2zm1 1l-1.8.1v2h1.9v-2zm-2.7.7l-8.2 18.9 1.9.8 8.1-18.9-1.8-.8zm-8.2 18.9c-2.2 5.2-4.5 10-6.8 14.3l1.7 1a158 158 0 007-14.5l-1.9-.8zm-6.8 14.3a83.8 83.8 0 01-6.3 10.3l1.6 1.2c2-2.7 4-6.2 6.4-10.5l-1.7-1zm-4.9 10.1l-7.5-7.1-1.4 1.4 7.6 7.2 1.3-1.5zm-7.7-5.5c5.3-3.1 10.1-6.5 14.4-10.1l-1.3-1.5a88.3 88.3 0 01-14.1 9.8l1 1.8zm13.7-11.9l-3.6.2.1 2 3.6-.2-.1-2zm-2.6.9L191 227l-2 .7 10 26.6 1.8-.6zm-10.7-27.4h-1.9v2h1.8v-2zm-1 1v-2.1h-2v2h2zm-1-1.1h15.2v-2h-15.1v2zm14.2-1v2h2v-2h-2zm1 1l-2.7.1v2h2.8v-2zm-3.6 1.4l5.8 19.6 2-.6-5.9-19.6-1.9.6zm7.7 19.6l5.3-19.6-2-.5-5.2 19.5 2 .6zm4.4-20.9H209v2h2.6v-2zm-1.8 1v-2.1h-2v2h2zm-1-1.1h11v-2h-11v2zm29.5-2v-1l-.8.4.8.6zm6.5 1.8l-.5.8.5-.8zm4.4 4.6l-.9.5.9-.5zm.5 13.7l-1-.2 1 .2zm-2.5 5.7l-.8-.6.8.6zm-4.5 3.4l.5.9-.5-1zm-10.5 1l.1-1-1.1 1h1zm.1 13.6h-1l1 1v-1zm5 .1h1l-1-1v1zm0 1.9v1l1-1h-1zm-17 0h-1l1 1v-1zm0-1.9l-.1-1-1 1h1zm2.3-.1l.1 1 1-1h-1zm.4-39h1l-1.3-1 .3 1zm-2.5.5l-1 .3 1.3.7-.3-1zm-.6-2l-.3-.9-.7 1.3 1-.3zm10-3l.9-.3-1.3-.7.3 1zm2 7.2l-1 .3 1.7.4-.7-.7zm8.1 18.4l-.1 1 1-.6-.9-.4zm.7-14l.9-.4-1 .4zm-2.6-3.3l-.6.8.6-.8zm-3.3-1.2v-1l-.7.3.7.7zm-2.8 2.8l-.7-.7-.3.7h1zm.1 13h-1l.6 1 .4-1zm6.2-22.2c2.3 0 4.3.6 6 1.6l1-1.7c-2-1.2-4.4-1.9-7-1.9v2zm6 1.6c1.7 1 3 2.5 4 4.3l1.8-1a12.1 12.1 0 00-4.8-5l-1 1.7zm4 4.3c1 1.8 1.5 3.9 1.5 6.3h2c0-2.7-.6-5.1-1.7-7.2l-1.8 1zm1.5 6.3c0 2-.3 4.3-1 6.7l1.9.5c.7-2.5 1.1-5 1.1-7.2h-2zm-1 6.7c-.7 2.3-1.5 4-2.4 5.3l1.5 1.2c1.2-1.5 2-3.5 2.8-6l-2-.5zm-2.5 5.3c-.6 1-2 2-4 3l.9 1.8c2.2-1 3.8-2.3 4.8-3.7l-1.7-1.1zm-4 3c-2 1.1-3.7 1.6-5 1.6v2c1.7 0 3.7-.6 5.9-1.7l-1-1.8zm-5 1.6c-1 0-2.6-.2-5-.6l-.3 2c2.4.4 4.2.6 5.4.6v-2zm-6.1.4l.1 13.6h2l-.1-13.6h-2zm1 14.6l5 .1v-2l-4.9-.1v2zm4-.9v1.9h2v-1.9h-2zm1 .9h-17v2h17v-2zm-16 1v-1.9h-2v1.9h2zm-.8-.9l2.3-.2-.1-2-2.4.2.2 2zm3.2-1.1l.4-39-2-.1-.4 39h2zm-.9-40l-2.4.5.5 2 2.4-.6-.5-2zm-1.2 1.2l-.7-2-1.9.7.7 1.9 1.9-.6zm-1.3-.7l10-3.1-.7-2-10 3.2.7 2zm8.6-3.8l2 7.3 2-.5-2-7.3-2 .5zm3.8 7.7l6.4-7.5-1.5-1.3-6.4 7.5 1.5 1.3zm8.4 18.1a23 23 0 001.6-9.3h-2c0 3.4-.5 6.2-1.5 8.5l1.9.8zm1.6-9.3c0-2-.3-4-1-5.5l-1.8.8c.5 1.3.8 2.8.8 4.7h2zm-1-5.5a9 9 0 00-2.9-3.8l-1.2 1.7a7 7 0 012.3 2.9l1.8-.8zm-2.9-3.7a6.4 6.4 0 00-3.9-1.4v2c1 0 1.9.3 2.7 1l1.2-1.6zm-4.6-1.1l-2.8 2.8 1.4 1.4 2.8-2.8-1.4-1.4zm-3.1 3.5l.1 13h2l-.1-13h-2zm.7 14c2.9 1.3 5.6 2.2 8.2 2.7l.3-2c-2.3-.4-5-1.3-7.7-2.6l-.8 1.8zm44.9-20l-.8.6.8-.7zm3.2 10.9v1l1-1h-1zm-17.7.6v-1l-1 1h1zm2.6 5.7l.7-.7-.7.7zm14-.8l.6-.7h-1.3l.6.7zm1 1l1 .5-.3-1.2-.6.8zm-6 6.8l.5.8-.5-.8zm-17.3-1.5l-.8.7.8-.7zm-2-18.2l-.8-.4.9.4zm4.1-6.4l-.5-.9-.2.2.7.7zm4.3-1.6l.3 1-.3-1zm7.5 12.3v1l1-1h-1zm-1.3-7.1l-.9.4 1-.4zm-3.4-3.2l.2-1-1 .3.8.7zm-2.7 4.7l-1-.3 1 .3zm-1 6.3h-1l1.2 1-.1-1zm5.8-12.7c3.5 0 6.2 1.3 8 3.8l1.7-1.3c-2.4-3-5.6-4.5-9.7-4.5v2zm8.1 3.8c2 2.4 3 5.8 3 10.3h2c0-4.8-1-8.7-3.4-11.6L276 229zm4 9.3l-17.7.6v2l17.7-.6v-2zm-18.7 1.7a9.9 9.9 0 003 6.4l1.3-1.5a8 8 0 01-2.3-5.2l-2 .3zm3 6.4a9.2 9.2 0 006.4 2.2v-2c-2.2 0-3.9-.6-5-1.7l-1.4 1.5zm6.4 2.2c3.5 0 6.5-1 8.8-3l-1.3-1.5a10.9 10.9 0 01-7.5 2.5v2zm7.5-3l1.1 1 1.3-1.5-1.1-1-1.3 1.5zm.9-.2a16.2 16.2 0 01-5.7 6.3l1 1.7c2.7-1.7 4.9-4 6.5-7l-1.8-1zm-5.7 6.3a14 14 0 01-7.6 2.3v2c3 0 6-.9 8.6-2.6l-1-1.7zm-7.6 2.3c-3.6 0-6.4-1.2-8.5-3.5l-1.5 1.3c2.5 2.8 5.9 4.2 10 4.2v-2zm-8.5-3.5c-2-2.4-3.1-5.7-3.1-9.9h-2c0 4.6 1.1 8.3 3.6 11.2l1.5-1.3zm-3.1-9.9c0-2.4.4-4.9 1.4-7.3l-1.8-.8c-1.1 2.7-1.6 5.4-1.6 8.1h2zm1.4-7.3c1-2.5 2.3-4.5 3.9-6.1l-1.5-1.4c-1.7 1.8-3.1 4-4.2 6.7l1.8.8zm3.6-6c1-.5 2.4-1 4-1.4l-.4-2c-1.8.4-3.4 1-4.6 1.7l1 1.7zm4-1.4c1.7-.5 3.3-.7 4.7-.7v-2c-1.6 0-3.3.3-5.1.7l.5 2zm8.3 11.3c0-3.1-.5-5.6-1.4-7.6l-1.8.9c.7 1.6 1.2 3.8 1.2 6.7h2zm-1.4-7.6c-.9-2-2.2-3.2-4.1-3.6l-.5 1.9c1.2.3 2.1 1 2.8 2.6l1.8-.9zm-5-3.4c-1.3 1.3-2.2 3-3 5l2 .7c.6-1.9 1.5-3.3 2.4-4.3l-1.5-1.4zm-3 5c-.6 2.2-1 4.3-1 6.5h2c0-2 .4-4 1-5.8l-2-.6zm-1 6.5v.2h2v-.2h-2zm1.2 1.2l8.3-.7-.2-2-8.3.7.2 2zm30.5-5.8l-.7.7.7-.7zm4.3 3.4l.5-.9-.5.9zm5.2 4.3l.8-.7-.8.7zm-3.8 12.9l.4.9-.4-1zm-12.5-.3l-.5.8.5-.8zm-4.4-4.1l-.6-.8-.2 1.3.8-.5zm5.6-4.5l.8-.4-1.5-.3.7.7zm5.2 8l-.8.6 1.4.1-.6-.8zm1.8-2l-.8-.6.8.6zm-.6-5.3l-.7.7.7-.7zm-4-3.2l.5-.8-.5.8zm-3.6-2.6l-.6.8.6-.8zm-2.3-2.6l-.9.5.9-.5zm.6-8l-.8-.6.8.6zm4.5-3.5l-.5-1 .5 1zm11.5-.1l-.4.8.4-.8zm4 2.9l.8.7v-1.4l-.7.7zm-5 5l-.7.5 1.5.1-.7-.7zm-6.7-7l.6-.8-1.4.1.8.7zm-2.1 3.6c0 1.4.6 2.7 1.6 3.8l1.5-1.4c-.8-.7-1.1-1.5-1.1-2.4h-2zm1.6 3.8c1 1 2.5 2.2 4.4 3.5l1.1-1.7a29.5 29.5 0 01-4-3.2l-1.5 1.4zm4.4 3.5c2.3 1.5 4 3 5 4.1l1.6-1.3c-1.3-1.4-3.1-2.9-5.5-4.5l-1 1.7zm5 4.1c1.1 1.1 1.6 2.4 1.6 4h2c0-2-.7-3.9-2-5.3l-1.5 1.3zm1.6 4c0 1.5-.4 3-1.3 4.2l1.7 1.1c1-1.6 1.6-3.3 1.6-5.2h-2zm-1.3 4.2a9.6 9.6 0 01-3.8 3.2l1 1.8c1.9-1 3.4-2.3 4.5-3.9l-1.7-1.1zm-3.7 3.2c-1.7.8-3.6 1.2-5.8 1.2v2c2.5 0 4.7-.5 6.6-1.4l-.8-1.8zm-5.8 1.2c-2 0-4-.5-5.8-1.5l-1 1.7c2.2 1.2 4.5 1.8 6.8 1.8v-2zm-5.8-1.5a9.7 9.7 0 01-4-3.7l-1.7 1c1 1.8 2.6 3.3 4.7 4.4l1-1.7zm-4.2-2.5l5.5-4.4-1.3-1.5-5.5 4.4 1.3 1.5zm4-4.7a43 43 0 005.3 8l1.6-1.2c-1.8-2-3.5-4.6-5.2-7.7l-1.7 1zm6.7 8.2c.8-.6 1.5-1.3 2-2.2l-1.6-1c-.4.6-1 1.1-1.6 1.6l1.2 1.6zm2-2.1a5 5 0 001-2.8h-2c0 .4-.2 1-.6 1.6l1.6 1.2zm1-2.8a5 5 0 00-1.7-3.8l-1.4 1.4a3 3 0 011 2.4h2zm-1.7-3.8c-.9-1-2.3-2-4.2-3.3l-1 1.6c1.7 1.2 3 2.3 3.8 3l1.4-1.3zm-4.2-3.3l-3.5-2.5-1.2 1.5a47 47 0 003.6 2.6l1.1-1.6zm-3.5-2.5a9.5 9.5 0 01-2-2.4l-1.8 1c.7 1.1 1.6 2.1 2.6 3l1.2-1.6zm-2-2.4c-.5-.9-.8-1.8-.8-3h-2c0 1.5.3 2.8 1 4l1.8-1zm-.8-3c0-1.3.4-2.6 1.4-4l-1.7-1a8.8 8.8 0 00-1.7 5h2zm1.3-3.9c1-1.3 2.3-2.4 4-3.2l-.8-1.8c-2 1-3.6 2.2-4.8 3.8l1.6 1.2zm4-3.2c1.8-.8 3.8-1.3 6-1.3v-2c-2.5 0-4.7.5-6.8 1.5l.9 1.8zm6-1.3c1.7 0 3.3.4 4.8 1.2l.9-1.8c-1.8-1-3.7-1.4-5.6-1.4v2zm4.8 1.2c1.6.7 2.8 1.6 3.7 2.7l1.5-1.4a12.6 12.6 0 00-4.3-3.2l-.9 1.9zm3.8 1.3l-5 5 1.4 1.3 5-4.9-1.4-1.4zm-3.5 5c-2.1-2.6-4.4-5-7-7.1L292 227c2.4 2 4.6 4.3 6.6 6.8l1.6-1.2zm-8.4-7a6.8 6.8 0 00-1.3 4.3h2c0-1.3.3-2.3.9-3l-1.6-1.3zm-2.4 29.3v-2 2zm0-2v2-2z"/>
  <defs>
    <radialGradient id="paint0_diamond" cx="0" cy="0" r="1" gradientTransform="matrix(0 47.5 -175 0 184 47.5)" gradientUnits="userSpaceOnUse">
      <stop stop-color="#4989ED"/>
      <stop offset="1" stop-color="#BB93DF"/>
    </radialGradient>
    <radialGradient id="paint1_diamond" cx="0" cy="0" r="1" gradientTransform="matrix(-23.0892 0 0 -39.1814 184 141.2)" gradientUnits="userSpaceOnUse">
      <stop stop-color="#4989ED"/>
      <stop offset="1" stop-color="#BB93DF"/>
    </radialGradient>
    <radialGradient id="paint2_diamond" cx="0" cy="0" r="1" gradientTransform="matrix(0 47.5 -122.5 0 183.5 234.5)" gradientUnits="userSpaceOnUse">
      <stop stop-color="#4989ED"/>
      <stop offset="1" stop-color="#BB93DF"/>
    </radialGradient>
  </defs>
</svg>
